<?xml version="1.0" encoding="UTF-8" standalone="no"?>
<!DOCTYPE svg PUBLIC "-//W3C//DTD SVG 1.1//EN" "http://www.w3.org/Graphics/SVG/1.1/DTD/svg11.dtd">
<svg width="100%" height="100%" viewBox="0 0 22 29" version="1.1" xmlns="http://www.w3.org/2000/svg" xmlns:xlink="http://www.w3.org/1999/xlink" xml:space="preserve" xmlns:serif="http://www.serif.com/" style="fill-rule:evenodd;clip-rule:evenodd;stroke-linejoin:round;stroke-miterlimit:2;">
    <g transform="matrix(1,0,0,1,-26985.4,-10179.6)">
        <g transform="matrix(1,0,0,2.37903,26236.9,8862.41)">
            <g transform="matrix(8.44998e-05,0,0,3.55186e-05,748.486,553.651)">
                <path d="M63969,98738C82838,119005 112030,92455 140454,85019C156586,80798 165260,109436 186084,98981L188028,121647C200967,118715 191769,158650 180529,156557C176842,168761 175428,177393 169384,185473C158060,200611 139751,208342 125075,208020C111220,207716 93592,200106 82306,186145C75363,177554 73112,168115 68792,154928C56836,158488 48816,117974 61824,121444L63969,98740L63969,98738ZM145931,35478L145931,40468C145931,42783 144037,44678 141721,44678L133223,44678L133223,53176C133223,55492 131329,57386 129013,57386L124023,57386C121708,57386 119813,55492 119813,53176L119813,44678L111315,44678C108999,44678 107105,42784 107105,40468L107105,35478C107105,33163 108999,31268 111315,31268L119813,31268L119813,22770C119813,20454 121707,18560 124023,18560L129013,18560C131328,18560 133223,20454 133223,22770L133223,31268L141721,31268C144037,31268 145931,33162 145931,35478ZM96399,0L156636,0C158723,0 160885,302 163034,864C167681,2078 172074,4581 175321,7896C179018,11672 181380,16508 181380,21892C181380,23357 181179,24909 180752,26539L175138,48015C176855,49878 178484,51874 179999,54027C213225,101229 224278,186250 169692,197236C176953,201910 185825,202708 194943,202177C222428,202867 241593,214645 249270,241728L249270,319547C249235,326692 244975,331592 234751,333323L136401,333323L160662,198918C157572,201297 154304,203342 150953,205048C142359,209421 133173,211567 125011,211388C117309,211219 108552,208947 100279,204715C96499,202782 92806,200433 89346,197684L88346,197467L112869,333324L14519,333324C4295,331593 35,326693 0,319548L0,241729C7678,214646 26842,202868 54327,202178C64262,202758 73867,201708 81491,195883C53408,188925 41492,178989 41492,138818L41492,125116C43251,95079 50811,68486 67011,49017C69413,46130 72482,43433 76060,40987L72284,26540C71858,24909 71656,23357 71656,21890C71656,16505 74017,11670 77714,7895C80960,4580 85353,2078 89999,865C92149,303 94312,0 96400,0L96399,0ZM96399,8496L156636,8496C165392,8496 174768,15949 172555,24415L168084,41519L165075,53027C162864,61489 157903,68946 149156,68946L103878,68946C95131,68946 90173,61498 87959,53027L83653,36557L80479,24415C78265,15944 87642,8496 96398,8496L96399,8496ZM172771,266003L204695,266003L204695,273654L172771,273654L172771,266003ZM120985,333334L104730,250714C117463,253411 130854,253674 145120,250714L129604,333334L120984,333334L120985,333334Z" style="fill:rgb(128,128,128);"/>
            </g>
        </g>
    </g>
</svg>
